<mxfile host="Electron" modified="2024-06-26T03:38:46.766Z" agent="Mozilla/5.0 (X11; Linux x86_64) AppleWebKit/537.36 (KHTML, like Gecko) draw.io/24.6.1 Chrome/124.0.6367.207 Electron/30.0.6 Safari/537.36" etag="LauNoe4U_B2k2v2FAPep" version="24.6.1" type="device">
  <diagram name="Page-1" id="kRBsN0X6E2OnGPUmEl48">
    <mxGraphModel dx="621" dy="474" grid="1" gridSize="10" guides="1" tooltips="1" connect="1" arrows="1" fold="1" page="1" pageScale="1" pageWidth="1169" pageHeight="827" math="0" shadow="0">
      <root>
        <mxCell id="0" />
        <mxCell id="1" parent="0" />
        <mxCell id="cew8vataUfql-wdH7hek-1" value="&lt;div style=&quot;text-align: center;&quot;&gt;&lt;span style=&quot;background-color: initial;&quot;&gt;Mackay&lt;/span&gt;&lt;/div&gt;&lt;div&gt;&lt;ul&gt;&lt;li&gt;Kahn &amp;amp; Becca 40%&lt;/li&gt;&lt;li&gt;Dean &amp;amp; Carli 9%&lt;/li&gt;&lt;li&gt;Thomas 51%&lt;/li&gt;&lt;/ul&gt;&lt;/div&gt;" style="rounded=1;whiteSpace=wrap;html=1;align=left;" vertex="1" parent="1">
          <mxGeometry x="40" y="240" width="160" height="90" as="geometry" />
        </mxCell>
        <mxCell id="cew8vataUfql-wdH7hek-2" value="&lt;div style=&quot;&quot;&gt;&lt;span style=&quot;background-color: initial;&quot;&gt;Cairns&lt;/span&gt;&lt;/div&gt;&lt;ul&gt;&lt;li&gt;Wes &amp;amp; Brooke 49%&lt;/li&gt;&lt;li&gt;Thomas 51%&lt;/li&gt;&lt;/ul&gt;" style="rounded=1;whiteSpace=wrap;html=1;align=left;" vertex="1" parent="1">
          <mxGeometry x="240" y="240" width="160" height="90" as="geometry" />
        </mxCell>
        <mxCell id="cew8vataUfql-wdH7hek-3" value="&lt;div style=&quot;&quot;&gt;&lt;span style=&quot;background-color: initial;&quot;&gt;Ground Zero&lt;/span&gt;&lt;/div&gt;&lt;div&gt;&lt;ul&gt;&lt;li&gt;Thomas 100%&lt;/li&gt;&lt;/ul&gt;&lt;/div&gt;" style="rounded=1;whiteSpace=wrap;html=1;align=left;" vertex="1" parent="1">
          <mxGeometry x="440" y="240" width="160" height="90" as="geometry" />
        </mxCell>
        <mxCell id="cew8vataUfql-wdH7hek-4" value="&lt;div style=&quot;&quot;&gt;&lt;span style=&quot;background-color: initial;&quot;&gt;South Brisbane&lt;/span&gt;&lt;/div&gt;&lt;div&gt;&lt;ul&gt;&lt;li&gt;Daniel &amp;amp; Rachelle 49%&lt;/li&gt;&lt;li&gt;Thomas 51%&lt;/li&gt;&lt;/ul&gt;&lt;/div&gt;" style="rounded=1;whiteSpace=wrap;html=1;align=left;" vertex="1" parent="1">
          <mxGeometry x="640" y="240" width="170" height="90" as="geometry" />
        </mxCell>
        <mxCell id="cew8vataUfql-wdH7hek-5" value="&lt;div style=&quot;text-align: center;&quot;&gt;&lt;span style=&quot;background-color: initial;&quot;&gt;Wales&lt;/span&gt;&lt;/div&gt;&lt;div&gt;&lt;ul&gt;&lt;li&gt;Jordan 49%&lt;/li&gt;&lt;li&gt;Thomas 51%&lt;/li&gt;&lt;/ul&gt;&lt;/div&gt;" style="rounded=1;whiteSpace=wrap;html=1;align=left;" vertex="1" parent="1">
          <mxGeometry x="840" y="240" width="160" height="90" as="geometry" />
        </mxCell>
        <mxCell id="cew8vataUfql-wdH7hek-6" value="APL&lt;div&gt;&lt;ul&gt;&lt;li&gt;Daniel 49%&lt;/li&gt;&lt;li&gt;Thomas 51%&lt;/li&gt;&lt;/ul&gt;&lt;/div&gt;" style="rounded=1;whiteSpace=wrap;html=1;align=left;" vertex="1" parent="1">
          <mxGeometry x="1040" y="240" width="160" height="90" as="geometry" />
        </mxCell>
        <mxCell id="cew8vataUfql-wdH7hek-7" value="ZeroW Equipment&lt;div&gt;&lt;ul&gt;&lt;li&gt;Daniel 49%&lt;/li&gt;&lt;li&gt;Thomas 51%&lt;/li&gt;&lt;/ul&gt;&lt;/div&gt;" style="rounded=1;whiteSpace=wrap;html=1;align=left;" vertex="1" parent="1">
          <mxGeometry x="1240" y="240" width="160" height="90" as="geometry" />
        </mxCell>
        <mxCell id="cew8vataUfql-wdH7hek-8" value="Lilley Buddy&lt;div&gt;&lt;ul&gt;&lt;li&gt;Thomas 100%&lt;/li&gt;&lt;/ul&gt;&lt;/div&gt;" style="rounded=1;whiteSpace=wrap;html=1;align=left;" vertex="1" parent="1">
          <mxGeometry x="640" y="40" width="160" height="100" as="geometry" />
        </mxCell>
        <mxCell id="cew8vataUfql-wdH7hek-9" value="Sunshine Coast&lt;div&gt;&lt;ul&gt;&lt;li&gt;Rhys &amp;amp; Chloe 49%&lt;/li&gt;&lt;li&gt;Thomas 51%&lt;/li&gt;&lt;/ul&gt;&lt;/div&gt;" style="rounded=1;whiteSpace=wrap;html=1;align=left;" vertex="1" parent="1">
          <mxGeometry x="1440" y="240" width="160" height="90" as="geometry" />
        </mxCell>
        <mxCell id="cew8vataUfql-wdH7hek-10" value="" style="endArrow=none;html=1;rounded=0;entryX=0.25;entryY=1;entryDx=0;entryDy=0;" edge="1" parent="1" target="cew8vataUfql-wdH7hek-8">
          <mxGeometry width="50" height="50" relative="1" as="geometry">
            <mxPoint x="540" y="240" as="sourcePoint" />
            <mxPoint x="590" y="190" as="targetPoint" />
            <Array as="points" />
          </mxGeometry>
        </mxCell>
        <mxCell id="cew8vataUfql-wdH7hek-11" value="" style="endArrow=none;html=1;rounded=0;entryX=0.5;entryY=1;entryDx=0;entryDy=0;exitX=0.5;exitY=0;exitDx=0;exitDy=0;" edge="1" parent="1" source="cew8vataUfql-wdH7hek-4" target="cew8vataUfql-wdH7hek-8">
          <mxGeometry width="50" height="50" relative="1" as="geometry">
            <mxPoint x="540" y="240" as="sourcePoint" />
            <mxPoint x="590" y="190" as="targetPoint" />
          </mxGeometry>
        </mxCell>
        <mxCell id="cew8vataUfql-wdH7hek-12" value="" style="endArrow=none;html=1;rounded=0;entryX=0.75;entryY=1;entryDx=0;entryDy=0;exitX=0.5;exitY=0;exitDx=0;exitDy=0;" edge="1" parent="1" source="cew8vataUfql-wdH7hek-5" target="cew8vataUfql-wdH7hek-8">
          <mxGeometry width="50" height="50" relative="1" as="geometry">
            <mxPoint x="840" y="240" as="sourcePoint" />
            <mxPoint x="890" y="190" as="targetPoint" />
          </mxGeometry>
        </mxCell>
        <mxCell id="cew8vataUfql-wdH7hek-13" value="" style="endArrow=none;html=1;rounded=0;exitX=0.5;exitY=0;exitDx=0;exitDy=0;entryX=1;entryY=1;entryDx=0;entryDy=0;" edge="1" parent="1" source="cew8vataUfql-wdH7hek-6" target="cew8vataUfql-wdH7hek-8">
          <mxGeometry width="50" height="50" relative="1" as="geometry">
            <mxPoint x="1140" y="240" as="sourcePoint" />
            <mxPoint x="1190" y="190" as="targetPoint" />
          </mxGeometry>
        </mxCell>
        <mxCell id="cew8vataUfql-wdH7hek-14" value="" style="endArrow=none;html=1;rounded=0;exitX=0.5;exitY=0;exitDx=0;exitDy=0;entryX=1;entryY=0.75;entryDx=0;entryDy=0;" edge="1" parent="1" source="cew8vataUfql-wdH7hek-7" target="cew8vataUfql-wdH7hek-8">
          <mxGeometry width="50" height="50" relative="1" as="geometry">
            <mxPoint x="1180" y="240" as="sourcePoint" />
            <mxPoint x="1230" y="190" as="targetPoint" />
          </mxGeometry>
        </mxCell>
        <mxCell id="cew8vataUfql-wdH7hek-15" value="" style="endArrow=none;html=1;rounded=0;exitX=0.5;exitY=0;exitDx=0;exitDy=0;entryX=1;entryY=0.5;entryDx=0;entryDy=0;" edge="1" parent="1" source="cew8vataUfql-wdH7hek-9" target="cew8vataUfql-wdH7hek-8">
          <mxGeometry width="50" height="50" relative="1" as="geometry">
            <mxPoint x="1280" y="240" as="sourcePoint" />
            <mxPoint x="1330" y="190" as="targetPoint" />
          </mxGeometry>
        </mxCell>
        <mxCell id="cew8vataUfql-wdH7hek-16" value="" style="endArrow=none;html=1;rounded=0;exitX=0.5;exitY=0;exitDx=0;exitDy=0;entryX=0;entryY=1;entryDx=0;entryDy=0;" edge="1" parent="1" source="cew8vataUfql-wdH7hek-2" target="cew8vataUfql-wdH7hek-8">
          <mxGeometry width="50" height="50" relative="1" as="geometry">
            <mxPoint x="360" y="240" as="sourcePoint" />
            <mxPoint x="410" y="190" as="targetPoint" />
          </mxGeometry>
        </mxCell>
        <mxCell id="cew8vataUfql-wdH7hek-17" value="" style="endArrow=none;html=1;rounded=0;exitX=0.5;exitY=0;exitDx=0;exitDy=0;entryX=0;entryY=0.75;entryDx=0;entryDy=0;" edge="1" parent="1" source="cew8vataUfql-wdH7hek-1" target="cew8vataUfql-wdH7hek-8">
          <mxGeometry width="50" height="50" relative="1" as="geometry">
            <mxPoint x="360" y="240" as="sourcePoint" />
            <mxPoint x="410" y="190" as="targetPoint" />
          </mxGeometry>
        </mxCell>
      </root>
    </mxGraphModel>
  </diagram>
</mxfile>
